<?xml version="1.0" standalone="no"?>
<!DOCTYPE svg PUBLIC "-//W3C//DTD SVG 20010904//EN"
 "http://www.w3.org/TR/2001/REC-SVG-20010904/DTD/svg10.dtd">
<svg version="1.0" xmlns="http://www.w3.org/2000/svg"
 width="111.000000pt" height="170.000000pt" viewBox="0 0 111.000000 170.000000"
 preserveAspectRatio="xMidYMid meet">

<g transform="translate(0.000000,170.000000) scale(0.100000,-0.100000)"
fill="#000000" stroke="none">
<path d="M515 1677 c-11 -6 -58 -19 -104 -29 -98 -21 -141 -45 -180 -101 -28
-42 -101 -213 -101 -238 0 -7 -14 -60 -32 -117 -25 -82 -37 -107 -60 -123 -27
-20 -28 -23 -28 -107 l0 -87 85 -89 85 -88 0 -63 c0 -53 4 -68 25 -93 23 -28
25 -37 27 -172 l3 -143 70 -54 c70 -54 228 -153 244 -153 24 0 218 128 279
183 l42 40 0 135 c0 125 2 138 21 159 17 17 23 39 27 96 l4 74 84 84 84 83 0
79 c0 74 -2 83 -41 148 -42 72 -71 146 -83 212 -9 51 -69 191 -101 237 -32 47
-101 84 -185 100 -36 6 -79 18 -97 26 -37 17 -42 17 -68 1z m177 -59 c64 -20
68 -23 88 -70 20 -47 47 -224 36 -235 -3 -3 -34 5 -68 18 -55 21 -80 24 -198
24 -116 0 -143 -3 -193 -22 -32 -13 -62 -23 -67 -23 -24 0 -1 176 31 245 11
24 28 45 37 48 9 3 35 13 57 21 62 23 196 21 277 -6z m-402 -95 c-10 -32 -21
-97 -25 -144 -6 -82 -8 -86 -35 -96 -26 -10 -28 -9 -34 19 -11 56 -6 88 22
151 24 51 75 127 87 127 2 0 -5 -26 -15 -57z m559 -183 c0 -28 -2 -31 -9 -15
-5 11 -8 45 -8 75 0 55 0 55 9 15 4 -22 8 -56 8 -75z m-99 -31 l65 -23 -40 -7
c-22 -5 -92 -8 -156 -8 -181 -1 -259 -22 -375 -102 l-41 -28 3 57 3 56 53 24
c108 48 184 63 308 58 86 -3 131 -10 180 -27z m-572 -119 c1 -49 -2 -68 -8
-54 -9 23 -14 82 -10 139 4 67 18 3 18 -85z m757 -28 c-4 -26 -10 -40 -17 -36
-12 7 -4 147 9 167 11 16 16 -77 8 -131z m-243 56 c48 -14 41 -25 -25 -33
-104 -12 -107 -14 -107 -46 0 -34 -5 -34 141 -13 118 16 141 15 174 -10 19
-14 18 -15 -16 -10 -19 3 -75 1 -125 -6 -164 -22 -197 -23 -298 -9 -56 8 -129
14 -163 14 l-62 0 26 21 27 21 105 -23 c136 -30 131 -30 131 10 l0 33 -76 13
c-74 13 -75 14 -50 27 60 31 228 37 318 11z m-576 -80 c-19 -26 -20 -20 -5 19
6 15 13 22 16 16 2 -7 -3 -23 -11 -35z m883 -13 c0 -5 -6 -1 -14 9 -8 11 -15
27 -15 35 1 17 29 -26 29 -44z m-873 -66 c-11 -27 -16 -72 -16 -146 0 -105 0
-106 -20 -88 -17 16 -20 31 -20 118 0 96 1 100 32 140 37 46 47 35 24 -24z
m894 -115 c0 -87 -3 -114 -15 -124 -13 -11 -15 1 -15 94 0 72 -5 118 -15 143
-24 58 -18 71 15 33 28 -34 29 -38 30 -146z m-796 122 c-10 -8 -21 -12 -24
-10 -5 6 21 24 34 24 6 0 1 -6 -10 -14z m655 -15 c18 -10 21 -21 21 -80 0 -88
-9 -96 -110 -96 -119 0 -164 33 -171 125 -2 43 0 48 29 59 33 13 202 7 231 -8z
m-415 3 c37 -14 10 -126 -39 -158 -36 -23 -160 -32 -195 -14 -23 13 -25 19
-25 83 0 64 2 70 25 82 26 13 205 18 234 7z m-274 -55 c0 -31 -4 -48 -10 -44
-5 3 -10 26 -10 51 0 24 5 44 10 44 6 0 10 -23 10 -51z m397 1 c7 -14 17 -44
23 -67 15 -60 68 -84 184 -85 47 0 83 -4 80 -9 -3 -5 -13 -9 -22 -9 -16 -1
-16 -1 0 -10 12 -8 15 -20 11 -52 -4 -35 -14 -51 -54 -89 -35 -33 -49 -53 -49
-73 0 -37 -16 -65 -61 -107 -57 -54 -73 -55 -95 -6 -10 22 -24 46 -32 53 -19
19 -51 17 -60 -3 -10 -26 -56 -93 -63 -93 -3 0 -29 24 -58 54 -39 43 -51 62
-51 87 0 25 -11 43 -49 81 -40 40 -50 57 -56 96 -4 26 -11 55 -16 65 -9 15 -3
17 69 17 44 0 94 3 111 6 46 9 86 52 95 99 14 73 66 99 93 45z m330 -47 c-2
-16 -4 -5 -4 22 0 28 2 40 4 28 2 -13 2 -35 0 -50z m-695 -196 c2 -43 7 -51
49 -87 37 -31 47 -47 52 -80 4 -30 18 -54 59 -99 30 -34 62 -60 73 -60 14 0
29 15 50 49 16 28 34 50 40 50 7 0 22 -22 35 -50 33 -71 59 -69 133 9 44 46
57 67 57 90 0 21 11 43 36 71 44 48 55 50 47 8 -8 -43 -67 -142 -118 -197 -55
-60 -178 -151 -204 -151 -46 0 -119 51 -223 158 l-108 109 0 124 c0 83 3 120
10 113 6 -6 11 -31 12 -57z m251 -452 c36 -14 58 -16 99 -10 66 10 181 11 231
1 30 -6 37 -11 37 -31 0 -26 -92 -101 -217 -174 l-73 -43 -72 41 c-40 23 -104
65 -143 94 l-70 52 -3 124 -3 124 84 -80 c55 -53 99 -86 130 -98z"/>
<path d="M620 877 c0 -3 4 -17 10 -31 9 -24 6 -29 -32 -56 -22 -17 -45 -30
-50 -30 -17 0 -78 46 -84 63 -3 10 0 25 8 34 11 14 11 16 -2 11 -8 -2 -16 -18
-18 -35 -3 -30 9 -45 64 -80 16 -9 16 -12 4 -16 -111 -34 -156 -60 -163 -97
-7 -35 0 -38 13 -5 7 19 15 25 26 21 9 -3 25 -6 35 -6 11 0 17 -4 14 -10 -8
-13 51 -48 92 -56 24 -4 43 0 75 18 24 14 42 30 41 36 -2 7 7 12 20 13 12 0 0
7 -28 15 -48 14 -122 14 -215 -1 -51 -9 -17 10 48 25 40 9 52 16 52 31 0 11 7
19 16 19 18 0 72 35 92 58 16 21 15 57 -3 72 -8 7 -15 10 -15 7z m-22 -216
c28 -17 -45 -28 -97 -14 -23 6 -23 7 -5 14 26 10 86 11 102 0z m-22 -46 c-36
-19 -57 -19 -82 0 -17 13 -13 14 46 15 64 0 64 0 36 -15z"/>
<path d="M278 833 c7 -3 16 -2 19 1 4 3 -2 6 -13 5 -11 0 -14 -3 -6 -6z"/>
<path d="M563 727 c-8 -13 24 -37 51 -37 29 -1 100 -27 104 -38 1 -5 10 -18
18 -28 14 -18 15 -18 8 6 -3 14 -13 33 -21 42 -31 35 -147 76 -160 55z"/>
</g>
</svg>
