<svg xmlns="http://www.w3.org/2000/svg" version="1.1" xmlns:xlink="http://www.w3.org/1999/xlink" xmlns:svgjs="http://svgjs.com/svgjs" width="1440" height="560" preserveAspectRatio="none" viewBox="0 0 1440 560"><g mask="url(&quot;#SvgjsMask1261&quot;)" fill="none"><rect width="1440" height="560" x="0" y="0" fill="url(#SvgjsLinearGradient1262)"></rect><path d="M0 0L216.97 0L0 2.14z" fill="rgba(255, 255, 255, .1)"></path><path d="M0 2.14L216.97 0L821.21 0L0 44.82z" fill="rgba(255, 255, 255, .075)"></path><path d="M0 44.82L821.21 0L1200.98 0L0 201.32z" fill="rgba(255, 255, 255, .05)"></path><path d="M0 201.32L1200.98 0L1318.95 0L0 432.14z" fill="rgba(255, 255, 255, .025)"></path><path d="M1440 560L761.65 560L1440 402.90999999999997z" fill="rgba(0, 0, 0, .1)"></path><path d="M1440 402.90999999999997L761.65 560L537.62 560L1440 223.41999999999996z" fill="rgba(0, 0, 0, .075)"></path><path d="M1440 223.41999999999996L537.62 560L263.52 560L1440 83.84999999999997z" fill="rgba(0, 0, 0, .05)"></path><path d="M1440 83.84999999999997L263.52 560L160 560L1440 70.40999999999997z" fill="rgba(0, 0, 0, .025)"></path></g><defs><mask id="SvgjsMask1261"><rect width="1440" height="560" fill="#ffffff"></rect></mask><linearGradient x1="84.72%" y1="-39.29%" x2="15.28%" y2="139.29%" gradientUnits="userSpaceOnUse" id="SvgjsLinearGradient1262"><stop stop-color="rgba(33, 94, 172, 1)" offset="0"></stop><stop stop-color="rgba(42, 111, 200, 1)" offset="0"></stop></linearGradient></defs></svg>